<?xml version="1.0" encoding="UTF-8"?>
<svg xmlns="http://www.w3.org/2000/svg" id="Layer_1" data-name="Layer 1" viewBox="0 0 120 120"><defs><style>.cls-1{fill:#0027da;}</style></defs><path class="cls-1" d="M48.62,78.66a32.08,32.08,0,1,1,32-32.07A32.06,32.06,0,0,1,48.62,78.66Zm0-62.28A30.21,30.21,0,1,0,78.83,46.59,30.24,30.24,0,0,0,48.62,16.38Z"/><path class="cls-1" d="M99.26,104.8A7.43,7.43,0,0,1,94,102.63L77.72,86.32a1,1,0,0,1,0-1.35l4-4-6.59-6.6-.21.2A38.1,38.1,0,0,1,48.76,85h-.14a38.46,38.46,0,1,1,28-12.17l-.21.22L83,79.7l4-4a.87.87,0,0,1,.62-.26.85.85,0,0,1,.62.26L104.51,92a7.54,7.54,0,0,1,.27,10.31l-.28.3A7.43,7.43,0,0,1,99.26,104.8ZM79.64,85.65l15.62,15.63a5.65,5.65,0,0,0,8,0l.22-.23a5.61,5.61,0,0,0-.21-7.67L87.59,77.68ZM48.62,10A36.58,36.58,0,1,0,85.2,46.59,36.61,36.61,0,0,0,48.62,10Z"/><path class="cls-1" d="M48.62,57a1,1,0,0,1-1-.88L45,31.84a5,5,0,0,1,0-.77,3.61,3.61,0,0,1,3.58-3.23,2.56,2.56,0,0,1,.39,0,3.6,3.6,0,0,1,3.2,4L49.6,56.11a1,1,0,0,1-.88.88ZM47.41,30.37A1.61,1.61,0,0,0,47,31.63l1.47,13.68h.3l1.47-13.68a1.62,1.62,0,0,0-1.62-1.8,1.61,1.61,0,0,0-1.21.54Z"/><path class="cls-1" d="M48.62,65.33a2.94,2.94,0,0,1-2.93-2.93,2.93,2.93,0,1,1,2.93,2.93Zm0-3.88a1,1,0,1,0,1,.95.95.95,0,0,0-1-.95Z"/></svg>